<?xml version="1.0" encoding="UTF-8"?><svg id="Layer_1" xmlns="http://www.w3.org/2000/svg" viewBox="0 0 512 512"><defs><style>.cls-1{fill:#75459b;fill-rule:evenodd;}</style></defs><path class="cls-1" d="M296.13,354.17c49.89-5.89,102.94-24.03,102.94-110.19,0-24.49-8.62-44.45-22.67-59.87,2.27-5.89,9.52-28.11-2.73-58.95,0,0-18.14-5.9-60.76,22.67-18.14-4.98-38.09-8.16-56.68-8.16s-39.01,3.18-56.7,8.16c-43.08-28.57-61.22-22.67-61.22-22.67-12.24,30.83-4.98,53.06-2.72,58.95-14.06,15.42-22.68,35.38-22.68,59.87,0,86.16,53.06,104.3,102.94,110.19-6.34,5.45-12.24,15.87-14.51,30.39-12.7,5.44-45.81,15.87-65.76-18.59,0,0-11.79-21.31-34.01-22.67,0,0-22.22-.45-1.81,13.59,0,0,14.96,6.81,24.94,32.65,0,0,13.6,43.09,76.18,29.48v38.54c0,5.91-4.53,12.7-15.87,10.89-88.89-29.48-152.83-113.83-152.83-212.69,0-123.81,100.22-224.02,224.03-224.02s224.02,100.22,223.57,224.02c0,98.86-63.95,182.75-152.83,212.69-11.34,2.27-15.87-4.53-15.87-10.89v-62.12c0-20.87-6.81-34.47-14.97-41.28h0ZM512,256.23C512,114.73,397.26,0,256.23,0S0,114.73,0,256.23s114.73,255.77,256.23,255.77,255.77-114.74,255.77-255.77h0Z"/></svg>