<?xml version="1.0" encoding="UTF-8"?><svg id="Layer_1" xmlns="http://www.w3.org/2000/svg" viewBox="0 0 479.99 480.78"><defs><style>.cls-1{fill:#75459a;}.cls-1,.cls-2,.cls-3{fill-rule:evenodd;}.cls-2{fill:#1a1a1a;}.cls-3{fill:#492c7e;}</style></defs><g id="linkdin_social_media_logo"><path class="cls-2" d="M418.48,0H61.52C27.72,0,0,27.72,0,61.52v356.96c0,33.8,27.72,61.52,61.52,61.52h356.95c33.81,0,61.52-27.72,61.52-61.52V61.52c0-33.8-27.71-61.52-61.52-61.52h.01ZM165,231.81v148.19h-65v-187h65v38.81ZM132.37,165.13c-18.08,0-32.76-14.66-32.76-32.76s14.67-32.74,32.76-32.74,32.77,14.65,32.77,32.74-14.66,32.76-32.77,32.76ZM380,278v102h-56v-90.83c0-21.75-2.36-49.72-32.16-49.72s-34.84,23.68-34.84,48.16v92.4h-54v-187h52v25h.55c7.76-14,26.76-25.02,55.05-25.02,47.67,0,63.87,22.54,68.3,57.81,1.05,8.28,1.46,17.21,1.46,27.21h-.37,0Z"/></g><g id="linkdin_social_media_logo-2"><path class="cls-3" d="M418.48.78H61.52C27.72.78,0,28.5,0,62.3v356.96c0,33.8,27.72,61.52,61.52,61.52h356.95c33.81,0,61.52-27.72,61.52-61.52V62.3c0-33.8-27.71-61.52-61.52-61.52h.01ZM165,232.59v148.19h-65v-187h65v38.81ZM132.37,165.9c-18.08,0-32.76-14.66-32.76-32.76s14.67-32.74,32.76-32.74,32.77,14.65,32.77,32.74-14.66,32.76-32.77,32.76ZM380,278.78v102h-56v-90.83c0-21.75-2.36-49.72-32.16-49.72s-34.84,23.68-34.84,48.16v92.4h-54v-187h52v25h.55c7.76-14,26.76-25.02,55.05-25.02,47.67,0,63.87,22.54,68.3,57.81,1.05,8.28,1.46,17.21,1.46,27.21h-.37,0Z"/></g><g id="linkdin_social_media_logo-2-2"><path class="cls-1" d="M418.49.78H61.53C27.73.78,0,28.5,0,62.3v356.96c0,33.8,27.72,61.52,61.52,61.52h356.95c33.81,0,61.52-27.72,61.52-61.52V62.3c0-33.8-27.71-61.52-61.52-61.52h.01ZM165.01,232.59v148.19h-65v-187h65v38.81ZM132.38,165.9c-18.08,0-32.76-14.66-32.76-32.76s14.67-32.74,32.76-32.74,32.77,14.65,32.77,32.74-14.66,32.76-32.77,32.76ZM380.01,278.78v102h-56v-90.83c0-21.75-2.36-49.72-32.16-49.72s-34.84,23.68-34.84,48.16v92.4h-54v-187h52v25h.55c7.76-14,26.76-25.02,55.05-25.02,47.67,0,63.87,22.54,68.3,57.81,1.05,8.28,1.46,17.21,1.46,27.21h-.37,0Z"/></g></svg>